<svg xmlns="http://www.w3.org/2000/svg" viewBox="0 0 512 512">
  <rect width="512" height="512" rx="96" fill="#2970ff"/>
  <path fill="#ffffff" d="M256 200
    C 220 200 195 230 165 240
    C 135 250 95 240 75 220
    C 70 215 60 215 58 225
    C 50 280 95 320 145 320
    C 175 320 200 305 220 285
    C 232 295 244 300 256 300
    C 268 300 280 295 292 285
    C 312 305 337 320 367 320
    C 417 320 462 280 454 225
    C 452 215 442 215 437 220
    C 417 240 377 250 347 240
    C 317 230 292 200 256 200 Z"/>
</svg>
